<?xml version="1.0" encoding="UTF-8"?>
<svg id="Layer_2" data-name="Layer 2" xmlns="http://www.w3.org/2000/svg" viewBox="0 0 149.3 149.3">
  <defs>
    <style>
      .cls-1 {
        fill: #3953a4;
      }

      .cls-1, .cls-2, .cls-3, .cls-4, .cls-5, .cls-6, .cls-7, .cls-8 {
        stroke: #fff;
        stroke-miterlimit: 10;
        stroke-width: 5px;
      }

      .cls-2 {
        fill: #c24e9d;
      }

      .cls-3 {
        fill: #7951a1;
      }

      .cls-4 {
        fill: #34c6f4;
      }

      .cls-5 {
        fill: #fdeb01;
      }

      .cls-6 {
        fill: #6abd45;
      }

      .cls-7 {
        fill: #ed2024;
      }

      .cls-8 {
        fill: #f8991d;
      }
    </style>
  </defs>
  <g id="Layer_1-2" data-name="Layer 1">
    <g>
      <path class="cls-8" d="m74.65,2.5v36.07c-9.97,0-18.99,4.03-25.51,10.56l-25.52-25.52C36.67,10.56,54.71,2.5,74.65,2.5Z"/>
      <path class="cls-6" d="m146.8,74.65h-36.07c0-9.97-4.03-18.99-10.56-25.51l25.52-25.52c13.05,13.05,21.12,31.09,21.12,51.03Z"/>
      <path class="cls-1" d="m125.68,125.68c-13.05,13.05-31.09,21.12-51.03,21.12v-36.07c9.97,0,18.99-4.03,25.51-10.56l25.52,25.52Z"/>
      <path class="cls-2" d="m49.14,100.16l-25.52,25.52c-13.05-13.05-21.12-31.09-21.12-51.03h36.07c0,9.97,4.03,18.99,10.56,25.51Z"/>
      <path class="cls-4" d="m146.8,74.65c0,19.94-8.06,37.98-21.12,51.03l-25.52-25.52c6.53-6.52,10.56-15.55,10.56-25.51h36.07Z"/>
      <path class="cls-5" d="m125.68,23.62l-25.52,25.52c-6.52-6.53-15.55-10.56-25.51-10.56V2.5c19.94,0,37.98,8.06,51.03,21.12Z"/>
      <path class="cls-7" d="m49.14,49.14c-6.53,6.52-10.56,15.55-10.56,25.51H2.5c0-19.94,8.06-37.98,21.12-51.03l25.52,25.52Z"/>
      <path class="cls-3" d="m74.65,110.72v36.07c-19.94,0-37.98-8.06-51.03-21.12l25.52-25.52c6.52,6.53,15.55,10.56,25.51,10.56Z"/>
    </g>
  </g>
</svg>